<?xml version="1.0" standalone="no"?>
<!DOCTYPE svg PUBLIC "-//W3C//DTD SVG 20010904//EN"
 "http://www.w3.org/TR/2001/REC-SVG-20010904/DTD/svg10.dtd">
<svg version="1.0" xmlns="http://www.w3.org/2000/svg"
 width="376.000000pt" height="376.000000pt" viewBox="0 0 376.000000 376.000000"
 preserveAspectRatio="xMidYMid meet">
<metadata>
Created by potrace 1.11, written by Peter Selinger 2001-2013
</metadata>
<g transform="translate(0.000000,376.000000) scale(0.100000,-0.100000)"
fill="#000000" stroke="none">
<path d="M431 3744 c-164 -44 -296 -151 -372 -302 -63 -127 -60 -40 -57 -1588
l3 -1409 23 -61 c62 -166 190 -293 358 -357 l59 -22 1435 0 1435 0 65 24 c136
50 250 148 313 269 72 137 67 23 67 1568 0 999 -3 1408 -11 1446 -45 208 -219
385 -429 435 -86 20 -2813 18 -2889 -3z"/>
</g>
</svg>
